# Rhino

mtllib 01.mtl
usemtl diffuse_200_0_0_255
v -10.376340866088867 0 13.065210342407227
v -10.376340866088867 0 0
v 10.376340866088867 0 13.065210342407227
v 10.376340866088867 0 0
v 0 0 13.065210342407227
v 10.376340866088867 0 6.5326051712036133
v 0 0 0
v -10.376340866088867 0 6.5326051712036133
v 10.376340866088867 0 13.065210342407227
v 10.376340866088867 16.806777954101563 13.065210342407227
v -10.376340866088867 0 13.065210342407227
v -10.376340866088867 16.806777954101563 13.065210342407227
v 0 0 13.065210342407227
v -10.376340866088867 8.4033889770507813 13.065210342407227
v 0 16.806777954101563 13.065210342407227
v 10.376340866088867 8.4033889770507813 13.065210342407227
v 10.376340866088867 0 0
v 10.376340866088867 16.806777954101563 0
v 10.376340866088867 0 13.065210342407227
v 10.376340866088867 16.806777954101563 13.065210342407227
v 10.376340866088867 0 6.5326051712036133
v 10.376340866088867 8.4033889770507813 13.065210342407227
v 10.376340866088867 16.806777954101563 6.5326051712036133
v 10.376340866088867 8.4033889770507813 0
v -10.376340866088867 16.806777954101563 13.065210342407227
v -10.376340866088867 16.806777954101563 0
v 10.376340866088867 16.806777954101563 13.065210342407227
v 10.376340866088867 16.806777954101563 0
v 0 16.806777954101563 13.065210342407227
v 10.376340866088867 16.806777954101563 6.5326051712036133
v 0 16.806777954101563 0
v -10.376340866088867 16.806777954101563 6.5326051712036133
v -10.376340866088867 0 13.065210342407227
v -10.376340866088867 16.806777954101563 13.065210342407227
v -10.376340866088867 0 0
v -10.376340866088867 16.806777954101563 0
v -10.376340866088867 8.4033889770507813 13.065210342407227
v -10.376340866088867 8.4033889770507813 0
v -10.376340866088867 0 6.5326051712036133
v -10.376340866088867 16.806777954101563 6.5326051712036133
vt 0.60710817575454712 0.39142698049545288
vt 0.30428650975227356 0.39142698049545288
vt 0.60710817575454712 0.87328857183456421
vt 0.30428650975227356 0.87328857183456421
vt 0.60710817575454712 0.63235777616500854
vt 0.45569735765457153 0.87328857183456421
vt 0.30428650975227356 0.63235777616500854
vt 0.45569735765457153 0.39142698049545288
vt 0 0
vt 0 0.38996213674545288
vt 0.48332640528678894 0
vt 0.48332640528678894 0.38996213674545288
vt 0.24166320264339447 0
vt 0.48332640528678894 0.19498106837272644
vt 0.24166320264339447 0.38996213674545288
vt 0 0.19498106837272644
vt 0.99853515625 0.4373767077922821
vt 0.60857301950454712 0.4373767077922821
vt 0.99853515625 0.74166321754455566
vt 0.60857301950454712 0.74166321754455566
vt 0.99853515625 0.58951997756958008
vt 0.80355411767959595 0.74166321754455566
vt 0.60857301950454712 0.58951997756958008
vt 0.80355411767959595 0.4373767077922821
vt 0.30282166600227356 0.39142698049545288
vt 0 0.39142698049545288
vt 0.30282166600227356 0.87328857183456421
vt 0 0.87328857183456421
vt 0.30282166600227356 0.63235777616500854
vt 0.15141083300113678 0.87328857183456421
vt 0 0.63235777616500854
vt 0.15141083300113678 0.39142698049545288
vt 0.99853515625 0
vt 0.60857301950454712 0
vt 0.99853515625 0.30428650975227356
vt 0.60857301950454712 0.30428650975227356
vt 0.80355411767959595 0
vt 0.80355411767959595 0.30428650975227356
vt 0.99853515625 0.15214325487613678
vt 0.60857301950454712 0.15214325487613678
vn 0 -1 0
vn 0 -1 0
vn 0 -1 0
vn 0 -1 0
vn 0 -1 0
vn 0 -1 0
vn 0 -1 0
vn 0 -1 0
vn 0 0 1
vn 0 0 1
vn 0 0 1
vn 0 0 1
vn 0 0 1
vn 0 0 1
vn 0 0 1
vn 0 0 1
vn 1 0 0
vn 1 0 0
vn 1 0 0
vn 1 0 0
vn 1 0 0
vn 1 0 0
vn 1 0 0
vn 1 0 0
vn 0 1 0
vn 0 1 0
vn 0 1 0
vn 0 1 0
vn 0 1 0
vn 0 1 0
vn 0 1 0
vn 0 1 0
vn -1 0 0
vn -1 0 0
vn -1 0 0
vn -1 0 0
vn -1 0 0
vn -1 0 0
vn -1 0 0
vn -1 0 0
f 5/5/5 1/1/1 8/8/8 2/2/2 7/7/7 4/4/4 6/6/6 3/3/3
f 13/13/13 9/9/9 16/16/16 10/10/10 15/15/15 12/12/12 14/14/14 11/11/11
f 21/21/21 17/17/17 24/24/24 18/18/18 23/23/23 20/20/20 22/22/22 19/19/19
f 32/32/32 25/25/25 29/29/29 27/27/27 30/30/30 28/28/28 31/31/31 26/26/26
f 39/39/39 33/33/33 37/37/37 34/34/34 40/40/40 36/36/36 38/38/38 35/35/35
