# Rhino

mtllib 03.mtl
usemtl diffuse_0_0_255_255
v 10.376340866088867 16.806777954101563 13.065210342407227
v 10.376340866088867 16.806777954101563 -13.065210342407227
v 10.376340866088867 16.806777954101563 0
v 10.376340866088867 26.478294372558594 6.5326051712036133
v 10.376340866088867 36.149810791015625 0
v 10.376340866088867 26.478294372558594 -6.5326051712036133
v -10.376340866088867 16.806777954101563 13.065210342407227
v -10.376340866088867 16.806777954101563 -13.065210342407227
v -10.376340866088867 16.806777954101563 0
v -10.376340866088867 26.478294372558594 6.5326051712036133
v -10.376340866088867 36.149810791015625 0
v -10.376340866088867 26.478294372558594 -6.5326051712036133
v 10.376340866088867 16.806777954101563 13.065210342407227
v -10.376340866088867 16.806777954101563 13.065210342407227
v 10.376340866088867 36.149810791015625 0
v -10.376340866088867 36.149810791015625 0
v 10.376340866088867 26.478294372558594 6.5326051712036133
v 0 36.149810791015625 0
v -10.376340866088867 26.478294372558594 6.5326051712036133
v 0 16.806777954101563 13.065210342407227
v 10.376340866088867 36.149810791015625 0
v -10.376340866088867 36.149810791015625 0
v 10.376340866088867 16.806777954101563 -13.065210342407227
v -10.376340866088867 16.806777954101563 -13.065210342407227
v 0 36.149810791015625 0
v 10.376340866088867 26.478294372558594 -6.5326051712036133
v 0 16.806777954101563 -13.065210342407227
v -10.376340866088867 26.478294372558594 -6.5326051712036133
v 10.376340866088867 16.806777954101563 -13.065210342407227
v -10.376340866088867 16.806777954101563 -13.065210342407227
v 10.376340866088867 16.806777954101563 13.065210342407227
v -10.376340866088867 16.806777954101563 13.065210342407227
v 10.376340866088867 16.806777954101563 0
v -10.376340866088867 16.806777954101563 0
v 0 16.806777954101563 13.065210342407227
v 0 16.806777954101563 -13.065210342407227
vt 0.39016866683959961 0.6516488790512085
vt 0.82548034191131592 0.6516488790512085
vt 0.60782450437545776 0.6516488790512085
vt 0.49899658560752869 0.49071225523948669
vt 0.60782450437545776 0.3297756016254425
vt 0.71665245294570923 0.49071225523948669
vt 0.39016866683959961 0.32509201765060425
vt 0.82548034191131592 0.32509201765060425
vt 0.60782450437545776 0.32509201765060425
vt 0.49899658560752869 0.16415537893772125
vt 0.60782450437545776 0.0032187327742576599
vt 0.71665245294570923 0.16415537893772125
vt 0 0
vt 0 0.3468862771987915
vt 0.38870382308959961 0
vt 0.38870382308959961 0.3468862771987915
vt 0.1943519115447998 0
vt 0.38870382308959961 0.17344313859939575
vt 0.1943519115447998 0.3468862771987915
vt 0 0.17344313859939575
vt 0 0.5
vt 0 0.8468862771987915
vt 0.38870382308959961 0.5
vt 0.38870382308959961 0.8468862771987915
vt 0 0.67344313859939575
vt 0.1943519115447998 0.5
vt 0.38870382308959961 0.67344313859939575
vt 0.1943519115447998 0.8468862771987915
vt 0.39016866683959961 0.6531137228012085
vt 0.39016866683959961 0.99853515625
vt 0.82548034191131592 0.6531137228012085
vt 0.82548034191131592 0.99853515625
vt 0.60782450437545776 0.6531137228012085
vt 0.60782450437545776 0.99853515625
vt 0.82548034191131592 0.82582443952560425
vt 0.39016866683959961 0.82582443952560425
vn 1 0 0
vn 1 0 0
vn 1 0 0
vn 1 0 0
vn 1 0 0
vn 1 0 0
vn -1 0 0
vn -1 0 0
vn -1 0 0
vn -1 0 0
vn -1 0 0
vn -1 0 0
vn 0 0.55972778797149658 0.82867652177810669
vn 0 0.55972778797149658 0.82867652177810669
vn 0 0.55972778797149658 0.82867652177810669
vn 0 0.55972778797149658 0.82867652177810669
vn 0 0.55972778797149658 0.82867652177810669
vn 0 0.55972778797149658 0.82867652177810669
vn 0 0.55972778797149658 0.82867652177810669
vn 0 0.55972778797149658 0.82867652177810669
vn 0 0.55972778797149658 -0.82867652177810669
vn 0 0.55972778797149658 -0.82867652177810669
vn 0 0.55972778797149658 -0.82867652177810669
vn 0 0.55972778797149658 -0.82867652177810669
vn 0 0.55972778797149658 -0.82867652177810669
vn 0 0.55972778797149658 -0.82867652177810669
vn 0 0.55972778797149658 -0.82867652177810669
vn 0 0.55972778797149658 -0.82867652177810669
vn 0 -1 0
vn 0 -1 0
vn 0 -1 0
vn 0 -1 0
vn 0 -1 0
vn 0 -1 0
vn 0 -1 0
vn 0 -1 0
f 4/4/4 1/1/1 3/3/3 2/2/2 6/6/6 5/5/5
f 9/9/9 7/7/7 10/10/10 11/11/11 12/12/12 8/8/8
f 20/20/20 13/13/13 17/17/17 15/15/15 18/18/18 16/16/16 19/19/19 14/14/14
f 25/25/25 21/21/21 26/26/26 23/23/23 27/27/27 24/24/24 28/28/28 22/22/22
f 36/36/36 29/29/29 33/33/33 31/31/31 35/35/35 32/32/32 34/34/34 30/30/30
